<svg version="1.1" xmlns="http://www.w3.org/2000/svg" xmlns:xlink="http://www.w3.org/1999/xlink" width="1227" height="840"><defs></defs><g><g transform="translate(-86,-30) scale(1,1)"><path fill="#C0C0C0" stroke="none" d="M 175 513 L 580 513 L 580 734 L 175 734" opacity="0.2"></path></g><g transform="translate(-86,-30) scale(1,1)"><path fill="#C0C0C0" stroke="none" d="M 175 513 L 185 503 L 590 503 L 580 513" opacity="0.2"></path></g><g transform="translate(-86,-30) scale(1,1)"><path fill="#C0C0C0" stroke="none" d="M 590 503 L 580 513 L 580 734 L 590 724" opacity="0.2"></path></g><g transform="translate(-86,-30) scale(1,1)"><path fill="#a4c4ff" stroke="none" d="M 168 506 L 573 506 L 573 727 L 168 727"></path></g><g transform="translate(-86,-30) scale(1,1)"><path fill="#a4c4ff" stroke="none" d="M 168 506 L 178 496 L 583 496 L 573 506"></path></g><g transform="translate(-86,-30) scale(1,1)"><path fill="#a4c4ff" stroke="none" d="M 583 496 L 573 506 L 573 727 L 583 717"></path></g><g transform="translate(-86,-30) scale(1,1)"><path fill="none" stroke="#0f61f7" d="M 168 506 L 573 506 L 573 727 L 168 727 L 168 506" stroke-miterlimit="10"></path></g><g transform="translate(-86,-30) scale(1,1)"><path fill="none" stroke="#0f61f7" d="M 168 506 L 178 496 L 583 496 L 573 506 L 168 506" stroke-miterlimit="10"></path></g><g transform="translate(-86,-30) scale(1,1)"><path fill="none" stroke="#0f61f7" d="M 583 496 L 573 506 L 573 727 L 583 717 L 583 496" stroke-miterlimit="10"></path></g><g transform="translate(-86,-30) scale(1,1)"><g><path fill="none" stroke="none"></path><text fill="#676767" stroke="none" font-family="Helvetica" font-size="12px" font-style="normal" font-weight="bold" text-decoration="none" x="318.5" y="524.5">OS Developer Host</text></g></g><g transform="translate(-86,-30) scale(1,1)"><path fill="#C0C0C0" stroke="none" d="M 1095 665 L 1299 665 L 1299 762 L 1095 762" opacity="0.2"></path></g><g transform="translate(-86,-30) scale(1,1)"><path fill="#C0C0C0" stroke="none" d="M 1095 665 L 1105 655 L 1309 655 L 1299 665" opacity="0.2"></path></g><g transform="translate(-86,-30) scale(1,1)"><path fill="#C0C0C0" stroke="none" d="M 1309 655 L 1299 665 L 1299 762 L 1309 752" opacity="0.2"></path></g><g transform="translate(-86,-30) scale(1,1)"><path fill="#a4c4ff" stroke="none" d="M 1088 658 L 1292 658 L 1292 755 L 1088 755"></path></g><g transform="translate(-86,-30) scale(1,1)"><path fill="#a4c4ff" stroke="none" d="M 1088 658 L 1098 648 L 1302 648 L 1292 658"></path></g><g transform="translate(-86,-30) scale(1,1)"><path fill="#a4c4ff" stroke="none" d="M 1302 648 L 1292 658 L 1292 755 L 1302 745"></path></g><g transform="translate(-86,-30) scale(1,1)"><path fill="none" stroke="#0f61f7" d="M 1088 658 L 1292 658 L 1292 755 L 1088 755 L 1088 658" stroke-miterlimit="10"></path></g><g transform="translate(-86,-30) scale(1,1)"><path fill="none" stroke="#0f61f7" d="M 1088 658 L 1098 648 L 1302 648 L 1292 658 L 1088 658" stroke-miterlimit="10"></path></g><g transform="translate(-86,-30) scale(1,1)"><path fill="none" stroke="#0f61f7" d="M 1302 648 L 1292 658 L 1292 755 L 1302 745 L 1302 648" stroke-miterlimit="10"></path></g><g transform="translate(-86,-30) scale(1,1)"><g><path fill="none" stroke="none"></path><text fill="#676767" stroke="none" font-family="Helvetica" font-size="12px" font-style="normal" font-weight="bold" text-decoration="none" x="1116" y="676.5">Application Developer Host</text></g></g><g transform="translate(-86,-30) scale(1,1)"><path fill="#C0C0C0" stroke="none" d="M 255 801 L 343 801 L 343 834 L 255 834" opacity="0.2"></path></g><g transform="translate(-86,-30) scale(1,1)"><path fill="#C0C0C0" stroke="none" d="M 255 801 L 265 791 L 353 791 L 343 801" opacity="0.2"></path></g><g transform="translate(-86,-30) scale(1,1)"><path fill="#C0C0C0" stroke="none" d="M 353 791 L 343 801 L 343 834 L 353 824" opacity="0.2"></path></g><g transform="translate(-86,-30) scale(1,1)"><path fill="#a4c4ff" stroke="none" d="M 248 794 L 336 794 L 336 827 L 248 827"></path></g><g transform="translate(-86,-30) scale(1,1)"><path fill="#a4c4ff" stroke="none" d="M 248 794 L 258 784 L 346 784 L 336 794"></path></g><g transform="translate(-86,-30) scale(1,1)"><path fill="#a4c4ff" stroke="none" d="M 346 784 L 336 794 L 336 827 L 346 817"></path></g><g transform="translate(-86,-30) scale(1,1)"><path fill="none" stroke="#0f61f7" d="M 248 794 L 336 794 L 336 827 L 248 827 L 248 794" stroke-miterlimit="10"></path></g><g transform="translate(-86,-30) scale(1,1)"><path fill="none" stroke="#0f61f7" d="M 248 794 L 258 784 L 346 784 L 336 794 L 248 794" stroke-miterlimit="10"></path></g><g transform="translate(-86,-30) scale(1,1)"><path fill="none" stroke="#0f61f7" d="M 346 784 L 336 794 L 336 827 L 346 817 L 346 784" stroke-miterlimit="10"></path></g><g transform="translate(-86,-30) scale(1,1)"><g><path fill="none" stroke="none"></path><text fill="#676767" stroke="none" font-family="Helvetica" font-size="12px" font-style="normal" font-weight="bold" text-decoration="none" x="254.5" y="812.5">Target Device</text></g></g><g transform="translate(-86,-30) scale(1,1)"><rect fill="#C0C0C0" stroke="none" x="425" y="607" width="96" height="44" opacity="0.2"></rect></g><g transform="translate(-86,-30) scale(1,1)"><rect fill="#a4c4ff" stroke="none" x="418" y="600" width="96" height="44"></rect></g><g transform="translate(-86,-30) scale(1,1)"><path fill="none" stroke="#0f61f7" d="M 418 600 L 514 600 L 514 644 L 418 644 L 418 600 Z Z" stroke-miterlimit="10"></path></g><g transform="translate(-86,-30) scale(1,1)"><rect fill="#a4c4ff" stroke="none" x="408" y="607" width="20" height="10"></rect></g><g transform="translate(-86,-30) scale(1,1)"><path fill="none" stroke="#0f61f7" d="M 408 607 L 428 607 L 428 617 L 408 617 L 408 607 Z Z" stroke-miterlimit="10"></path></g><g transform="translate(-86,-30) scale(1,1)"><rect fill="#a4c4ff" stroke="none" x="408" y="627" width="20" height="10"></rect></g><g transform="translate(-86,-30) scale(1,1)"><path fill="none" stroke="#0f61f7" d="M 408 627 L 428 627 L 428 637 L 408 637 L 408 627 Z Z" stroke-miterlimit="10"></path></g><g transform="translate(-86,-30) scale(1,1)"><g><path fill="none" stroke="none"></path><text fill="#676767" stroke="none" font-family="Helvetica" font-size="12px" font-style="normal" font-weight="bold" text-decoration="none" x="434.5" y="618.5">Yocto Source</text></g></g><g transform="translate(-86,-30) scale(1,1)"><rect fill="#C0C0C0" stroke="none" x="233" y="607" width="127" height="44" opacity="0.2"></rect></g><g transform="translate(-86,-30) scale(1,1)"><rect fill="#a4c4ff" stroke="none" x="226" y="600" width="127" height="44"></rect></g><g transform="translate(-86,-30) scale(1,1)"><path fill="none" stroke="#0f61f7" d="M 226 600 L 353 600 L 353 644 L 226 644 L 226 600 Z Z" stroke-miterlimit="10"></path></g><g transform="translate(-86,-30) scale(1,1)"><rect fill="#a4c4ff" stroke="none" x="216" y="607" width="20" height="10"></rect></g><g transform="translate(-86,-30) scale(1,1)"><path fill="none" stroke="#0f61f7" d="M 216 607 L 236 607 L 236 617 L 216 617 L 216 607 Z Z" stroke-miterlimit="10"></path></g><g transform="translate(-86,-30) scale(1,1)"><rect fill="#a4c4ff" stroke="none" x="216" y="627" width="20" height="10"></rect></g><g transform="translate(-86,-30) scale(1,1)"><path fill="none" stroke="#0f61f7" d="M 216 627 L 236 627 L 236 637 L 216 637 L 216 627 Z Z" stroke-miterlimit="10"></path></g><g transform="translate(-86,-30) scale(1,1)"><g><path fill="none" stroke="none"></path><text fill="#676767" stroke="none" font-family="Helvetica" font-size="12px" font-style="normal" font-weight="bold" text-decoration="none" x="242" y="618.5">OS Build Container</text></g></g><g transform="translate(-86,-30) scale(1,1)"><path fill="none" stroke="#0f61f7" d="M 407 622 L 354 622" stroke-miterlimit="10" stroke-dasharray="3"></path></g><g transform="translate(-86,-30) scale(1,1)"><path fill="none" stroke="#0f61f7" d="M 364.16267485762415 617.790482243984 L 354 622 L 364.16267485762415 626.209517756016" stroke-miterlimit="10"></path></g><g transform="translate(-86,-30) scale(1,1)"><rect fill="#C0C0C0" stroke="none" x="233" y="679" width="125" height="44" opacity="0.2"></rect></g><g transform="translate(-86,-30) scale(1,1)"><rect fill="#a4c4ff" stroke="none" x="226" y="672" width="125" height="44"></rect></g><g transform="translate(-86,-30) scale(1,1)"><path fill="none" stroke="#0f61f7" d="M 226 672 L 351 672 L 351 716 L 226 716 L 226 672 Z Z" stroke-miterlimit="10"></path></g><g transform="translate(-86,-30) scale(1,1)"><rect fill="#a4c4ff" stroke="none" x="216" y="679" width="20" height="10"></rect></g><g transform="translate(-86,-30) scale(1,1)"><path fill="none" stroke="#0f61f7" d="M 216 679 L 236 679 L 236 689 L 216 689 L 216 679 Z Z" stroke-miterlimit="10"></path></g><g transform="translate(-86,-30) scale(1,1)"><rect fill="#a4c4ff" stroke="none" x="216" y="699" width="20" height="10"></rect></g><g transform="translate(-86,-30) scale(1,1)"><path fill="none" stroke="#0f61f7" d="M 216 699 L 236 699 L 236 709 L 216 709 L 216 699 Z Z" stroke-miterlimit="10"></path></g><g transform="translate(-86,-30) scale(1,1)"><g><path fill="none" stroke="none"></path><text fill="#676767" stroke="none" font-family="Helvetica" font-size="12px" font-style="normal" font-weight="bold" text-decoration="none" x="263.5" y="690.5">OS Images</text></g></g><g transform="translate(-86,-30) scale(1,1)"><path fill="none" stroke="#0f61f7" d="M 284 645 L 283 671" stroke-miterlimit="10" stroke-dasharray="3"></path></g><g transform="translate(-86,-30) scale(1,1)"><path fill="none" stroke="#0f61f7" d="M 279.18417566617 660.6830486744702 L 283 671 L 287.5969909811858 661.0066184942785" stroke-miterlimit="10"></path></g><g transform="translate(-86,-30) scale(1,1)"><path fill="none" stroke="#0f61f7" d="M 286 717 L 294 783" stroke-miterlimit="10" stroke-dasharray="3"></path></g><g transform="translate(-86,-30) scale(1,1)"><path fill="none" stroke="#0f61f7" d="M 288.5981809542609 773.4177063811898 L 294 783 L 296.95604191919654 772.404632324834" stroke-miterlimit="10"></path></g><g transform="translate(-86,-30) scale(1,1)"><g><path fill="none" stroke="none"></path><text fill="#676767" stroke="none" font-family="Helvetica" font-size="12px" font-style="normal" font-weight="normal" text-decoration="none" x="297" y="778">«deploy»</text></g></g><g transform="translate(-86,-30) scale(1,1)"><path fill="#C0C0C0" stroke="none" d="M 263 57 L 500 57 L 500 274 L 263 274" opacity="0.2"></path></g><g transform="translate(-86,-30) scale(1,1)"><path fill="#C0C0C0" stroke="none" d="M 263 57 L 273 47 L 510 47 L 500 57" opacity="0.2"></path></g><g transform="translate(-86,-30) scale(1,1)"><path fill="#C0C0C0" stroke="none" d="M 510 47 L 500 57 L 500 274 L 510 264" opacity="0.2"></path></g><g transform="translate(-86,-30) scale(1,1)"><path fill="#a4c4ff" stroke="none" d="M 256 50 L 493 50 L 493 267 L 256 267"></path></g><g transform="translate(-86,-30) scale(1,1)"><path fill="#a4c4ff" stroke="none" d="M 256 50 L 266 40 L 503 40 L 493 50"></path></g><g transform="translate(-86,-30) scale(1,1)"><path fill="#a4c4ff" stroke="none" d="M 503 40 L 493 50 L 493 267 L 503 257"></path></g><g transform="translate(-86,-30) scale(1,1)"><path fill="none" stroke="#0f61f7" d="M 256 50 L 493 50 L 493 267 L 256 267 L 256 50" stroke-miterlimit="10"></path></g><g transform="translate(-86,-30) scale(1,1)"><path fill="none" stroke="#0f61f7" d="M 256 50 L 266 40 L 503 40 L 493 50 L 256 50" stroke-miterlimit="10"></path></g><g transform="translate(-86,-30) scale(1,1)"><path fill="none" stroke="#0f61f7" d="M 503 40 L 493 50 L 493 267 L 503 257 L 503 40" stroke-miterlimit="10"></path></g><g transform="translate(-86,-30) scale(1,1)"><g><path fill="none" stroke="none"></path><text fill="#676767" stroke="none" font-family="Arial" font-size="13px" font-style="normal" font-weight="normal" text-decoration="none" x="358" y="67.5">«VM»</text></g></g><g transform="translate(-86,-30) scale(1,1)"><g><path fill="none" stroke="none"></path><text fill="#676767" stroke="none" font-family="Arial" font-size="13px" font-style="normal" font-weight="bold" text-decoration="none" x="357" y="82.5">Server</text></g></g><g transform="translate(-86,-30) scale(1,1)"><rect fill="#C0C0C0" stroke="none" x="305" y="207" width="158" height="44" opacity="0.2"></rect></g><g transform="translate(-86,-30) scale(1,1)"><rect fill="#a4c4ff" stroke="none" x="298" y="200" width="158" height="44"></rect></g><g transform="translate(-86,-30) scale(1,1)"><path fill="none" stroke="#0f61f7" d="M 298 200 L 456 200 L 456 244 L 298 244 L 298 200 Z Z" stroke-miterlimit="10"></path></g><g transform="translate(-86,-30) scale(1,1)"><rect fill="#a4c4ff" stroke="none" x="288" y="207" width="20" height="10"></rect></g><g transform="translate(-86,-30) scale(1,1)"><path fill="none" stroke="#0f61f7" d="M 288 207 L 308 207 L 308 217 L 288 217 L 288 207 Z Z" stroke-miterlimit="10"></path></g><g transform="translate(-86,-30) scale(1,1)"><rect fill="#a4c4ff" stroke="none" x="288" y="227" width="20" height="10"></rect></g><g transform="translate(-86,-30) scale(1,1)"><path fill="none" stroke="#0f61f7" d="M 288 227 L 308 227 L 308 237 L 288 237 L 288 227 Z Z" stroke-miterlimit="10"></path></g><g transform="translate(-86,-30) scale(1,1)"><g><path fill="none" stroke="none"></path><text fill="#676767" stroke="none" font-family="Arial" font-size="13px" font-style="normal" font-weight="normal" text-decoration="none" x="327" y="217.5">«docker container»</text></g></g><g transform="translate(-86,-30) scale(1,1)"><g><path fill="none" stroke="none"></path><text fill="#676767" stroke="none" font-family="Arial" font-size="13px" font-style="normal" font-weight="bold" text-decoration="none" x="354.5" y="232.5">nfs-server</text></g></g><g transform="translate(-86,-30) scale(1,1)"><rect fill="#C0C0C0" stroke="none" x="305" y="151" width="158" height="44" opacity="0.2"></rect></g><g transform="translate(-86,-30) scale(1,1)"><rect fill="#a4c4ff" stroke="none" x="298" y="144" width="158" height="44"></rect></g><g transform="translate(-86,-30) scale(1,1)"><path fill="none" stroke="#0f61f7" d="M 298 144 L 456 144 L 456 188 L 298 188 L 298 144 Z Z" stroke-miterlimit="10"></path></g><g transform="translate(-86,-30) scale(1,1)"><rect fill="#a4c4ff" stroke="none" x="288" y="151" width="20" height="10"></rect></g><g transform="translate(-86,-30) scale(1,1)"><path fill="none" stroke="#0f61f7" d="M 288 151 L 308 151 L 308 161 L 288 161 L 288 151 Z Z" stroke-miterlimit="10"></path></g><g transform="translate(-86,-30) scale(1,1)"><rect fill="#a4c4ff" stroke="none" x="288" y="171" width="20" height="10"></rect></g><g transform="translate(-86,-30) scale(1,1)"><path fill="none" stroke="#0f61f7" d="M 288 171 L 308 171 L 308 181 L 288 181 L 288 171 Z Z" stroke-miterlimit="10"></path></g><g transform="translate(-86,-30) scale(1,1)"><g><path fill="none" stroke="none"></path><text fill="#676767" stroke="none" font-family="Arial" font-size="13px" font-style="normal" font-weight="normal" text-decoration="none" x="327" y="161.5">«docker container»</text></g></g><g transform="translate(-86,-30) scale(1,1)"><g><path fill="none" stroke="none"></path><text fill="#676767" stroke="none" font-family="Arial" font-size="13px" font-style="normal" font-weight="bold" text-decoration="none" x="336" y="176.5">deb. pkg, server</text></g></g><g transform="translate(-86,-30) scale(1,1)"><path fill="#C0C0C0" stroke="none" d="M 1151 833 L 1247 833 L 1247 866 L 1151 866" opacity="0.2"></path></g><g transform="translate(-86,-30) scale(1,1)"><path fill="#C0C0C0" stroke="none" d="M 1151 833 L 1161 823 L 1257 823 L 1247 833" opacity="0.2"></path></g><g transform="translate(-86,-30) scale(1,1)"><path fill="#C0C0C0" stroke="none" d="M 1257 823 L 1247 833 L 1247 866 L 1257 856" opacity="0.2"></path></g><g transform="translate(-86,-30) scale(1,1)"><path fill="#a4c4ff" stroke="none" d="M 1144 826 L 1240 826 L 1240 859 L 1144 859"></path></g><g transform="translate(-86,-30) scale(1,1)"><path fill="#a4c4ff" stroke="none" d="M 1144 826 L 1154 816 L 1250 816 L 1240 826"></path></g><g transform="translate(-86,-30) scale(1,1)"><path fill="#a4c4ff" stroke="none" d="M 1250 816 L 1240 826 L 1240 859 L 1250 849"></path></g><g transform="translate(-86,-30) scale(1,1)"><path fill="none" stroke="#0f61f7" d="M 1144 826 L 1240 826 L 1240 859 L 1144 859 L 1144 826" stroke-miterlimit="10"></path></g><g transform="translate(-86,-30) scale(1,1)"><path fill="none" stroke="#0f61f7" d="M 1144 826 L 1154 816 L 1250 816 L 1240 826 L 1144 826" stroke-miterlimit="10"></path></g><g transform="translate(-86,-30) scale(1,1)"><path fill="none" stroke="#0f61f7" d="M 1250 816 L 1240 826 L 1240 859 L 1250 849 L 1250 816" stroke-miterlimit="10"></path></g><g transform="translate(-86,-30) scale(1,1)"><g><path fill="none" stroke="none"></path><text fill="#676767" stroke="none" font-family="Arial" font-size="13px" font-style="normal" font-weight="bold" text-decoration="none" x="1153.5" y="845.5">Target Device</text></g></g><g transform="translate(-86,-30) scale(1,1)"><path fill="none" stroke="#0f61f7" d="M 1196 757 L 1197 815" stroke-miterlimit="10" stroke-dasharray="3"></path></g><g transform="translate(-86,-30) scale(1,1)"><path fill="none" stroke="#0f61f7" d="M 1192.6159152813611 804.9114024175906 L 1197 815 L 1201.0336997293382 804.7662682029703" stroke-miterlimit="10"></path></g><g transform="translate(-86,-30) scale(1,1)"><g><path fill="none" stroke="none"></path><text fill="#676767" stroke="none" font-family="Arial" font-size="13px" font-style="normal" font-weight="normal" text-decoration="none" x="1199" y="791">«deploy»</text></g></g><g transform="translate(-86,-30) scale(1,1)"><path fill="#C0C0C0" stroke="none" d="M 1119 97 L 1284 97 L 1284 194 L 1119 194" opacity="0.2"></path></g><g transform="translate(-86,-30) scale(1,1)"><path fill="#C0C0C0" stroke="none" d="M 1119 97 L 1129 87 L 1294 87 L 1284 97" opacity="0.2"></path></g><g transform="translate(-86,-30) scale(1,1)"><path fill="#C0C0C0" stroke="none" d="M 1294 87 L 1284 97 L 1284 194 L 1294 184" opacity="0.2"></path></g><g transform="translate(-86,-30) scale(1,1)"><path fill="#a4c4ff" stroke="none" d="M 1112 90 L 1277 90 L 1277 187 L 1112 187"></path></g><g transform="translate(-86,-30) scale(1,1)"><path fill="#a4c4ff" stroke="none" d="M 1112 90 L 1122 80 L 1287 80 L 1277 90"></path></g><g transform="translate(-86,-30) scale(1,1)"><path fill="#a4c4ff" stroke="none" d="M 1287 80 L 1277 90 L 1277 187 L 1287 177"></path></g><g transform="translate(-86,-30) scale(1,1)"><path fill="none" stroke="#0f61f7" d="M 1112 90 L 1277 90 L 1277 187 L 1112 187 L 1112 90" stroke-miterlimit="10"></path></g><g transform="translate(-86,-30) scale(1,1)"><path fill="none" stroke="#0f61f7" d="M 1112 90 L 1122 80 L 1287 80 L 1277 90 L 1112 90" stroke-miterlimit="10"></path></g><g transform="translate(-86,-30) scale(1,1)"><path fill="none" stroke="#0f61f7" d="M 1287 80 L 1277 90 L 1277 187 L 1287 177 L 1287 80" stroke-miterlimit="10"></path></g><g transform="translate(-86,-30) scale(1,1)"><g><path fill="none" stroke="none"></path><text fill="#676767" stroke="none" font-family="Arial" font-size="13px" font-style="normal" font-weight="bold" text-decoration="none" x="1163" y="109.5">http -server</text></g></g><g transform="translate(-86,-30) scale(1,1)"><path fill="none" stroke="#0f61f7" d="M 1200 189 L 1195 647" stroke-miterlimit="10" stroke-dasharray="3"></path></g><g transform="translate(-86,-30) scale(1,1)"><path fill="none" stroke="#0f61f7" d="M 1190.9016726912917 636.7919779942099 L 1195 647 L 1199.320206551286 636.8838833856946" stroke-miterlimit="10"></path></g><g transform="translate(-86,-30) scale(1,1)"><g><path fill="none" stroke="none"></path><text fill="#676767" stroke="none" font-family="Arial" font-size="13px" font-style="normal" font-weight="normal" text-decoration="none" x="1200" y="425">«deploy»</text></g></g><g transform="translate(-86,-30) scale(1,1)"><rect fill="#C0C0C0" stroke="none" x="1161" y="127" width="99" height="44" opacity="0.2"></rect></g><g transform="translate(-86,-30) scale(1,1)"><rect fill="#a4c4ff" stroke="none" x="1154" y="120" width="99" height="44"></rect></g><g transform="translate(-86,-30) scale(1,1)"><path fill="none" stroke="#0f61f7" d="M 1154 120 L 1253 120 L 1253 164 L 1154 164 L 1154 120 Z Z" stroke-miterlimit="10"></path></g><g transform="translate(-86,-30) scale(1,1)"><rect fill="#a4c4ff" stroke="none" x="1144" y="127" width="20" height="10"></rect></g><g transform="translate(-86,-30) scale(1,1)"><path fill="none" stroke="#0f61f7" d="M 1144 127 L 1164 127 L 1164 137 L 1144 137 L 1144 127 Z Z" stroke-miterlimit="10"></path></g><g transform="translate(-86,-30) scale(1,1)"><rect fill="#a4c4ff" stroke="none" x="1144" y="147" width="20" height="10"></rect></g><g transform="translate(-86,-30) scale(1,1)"><path fill="none" stroke="#0f61f7" d="M 1144 147 L 1164 147 L 1164 157 L 1144 157 L 1144 147 Z Z" stroke-miterlimit="10"></path></g><g transform="translate(-86,-30) scale(1,1)"><g><path fill="none" stroke="none"></path><text fill="#676767" stroke="none" font-family="Arial" font-size="13px" font-style="normal" font-weight="bold" text-decoration="none" x="1176" y="139.5">OS Images</text></g></g><g transform="translate(-86,-30) scale(1,1)"><path fill="#C0C0C0" stroke="none" d="M 639 105 L 796 105 L 796 190 L 639 190" opacity="0.2"></path></g><g transform="translate(-86,-30) scale(1,1)"><path fill="#C0C0C0" stroke="none" d="M 639 105 L 649 95 L 806 95 L 796 105" opacity="0.2"></path></g><g transform="translate(-86,-30) scale(1,1)"><path fill="#C0C0C0" stroke="none" d="M 806 95 L 796 105 L 796 190 L 806 180" opacity="0.2"></path></g><g transform="translate(-86,-30) scale(1,1)"><path fill="#a4c4ff" stroke="none" d="M 632 98 L 789 98 L 789 183 L 632 183"></path></g><g transform="translate(-86,-30) scale(1,1)"><path fill="#a4c4ff" stroke="none" d="M 632 98 L 642 88 L 799 88 L 789 98"></path></g><g transform="translate(-86,-30) scale(1,1)"><path fill="#a4c4ff" stroke="none" d="M 799 88 L 789 98 L 789 183 L 799 173"></path></g><g transform="translate(-86,-30) scale(1,1)"><path fill="none" stroke="#0f61f7" d="M 632 98 L 789 98 L 789 183 L 632 183 L 632 98" stroke-miterlimit="10"></path></g><g transform="translate(-86,-30) scale(1,1)"><path fill="none" stroke="#0f61f7" d="M 632 98 L 642 88 L 799 88 L 789 98 L 632 98" stroke-miterlimit="10"></path></g><g transform="translate(-86,-30) scale(1,1)"><path fill="none" stroke="#0f61f7" d="M 799 88 L 789 98 L 789 183 L 799 173 L 799 88" stroke-miterlimit="10"></path></g><g transform="translate(-86,-30) scale(1,1)"><g><path fill="none" stroke="none"></path><text fill="#676767" stroke="none" font-family="Arial" font-size="13px" font-style="normal" font-weight="normal" text-decoration="none" x="694" y="115.5">«VM»</text></g></g><g transform="translate(-86,-30) scale(1,1)"><g><path fill="none" stroke="none"></path><text fill="#676767" stroke="none" font-family="Arial" font-size="13px" font-style="normal" font-weight="bold" text-decoration="none" x="694" y="130.5">Gitlab</text></g></g><g transform="translate(-86,-30) scale(1,1)"><path fill="none" stroke="#0f61f7" d="M 215 695 L 96 696 L 96 472 L 576 472 L 696 185" stroke-miterlimit="10" stroke-dasharray="3"></path></g><g transform="translate(-86,-30) scale(1,1)"><path fill="none" stroke="#0f61f7" d="M 695.9633872608733 195.9999390683464 L 696 185 L 688.1959793760192 192.75224239175233" stroke-miterlimit="10"></path></g><g transform="translate(-86,-30) scale(1,1)"><g><path fill="none" stroke="none"></path><text fill="#676767" stroke="none" font-family="Arial" font-size="13px" font-style="normal" font-weight="normal" text-decoration="none" x="111" y="449">«deploy»</text></g></g><g transform="translate(-86,-30) scale(1,1)"><rect fill="#C0C0C0" stroke="none" x="233" y="535" width="126" height="44" opacity="0.2"></rect></g><g transform="translate(-86,-30) scale(1,1)"><rect fill="#a4c4ff" stroke="none" x="226" y="528" width="126" height="44"></rect></g><g transform="translate(-86,-30) scale(1,1)"><path fill="none" stroke="#0f61f7" d="M 226 528 L 352 528 L 352 572 L 226 572 L 226 528 Z Z" stroke-miterlimit="10"></path></g><g transform="translate(-86,-30) scale(1,1)"><rect fill="#a4c4ff" stroke="none" x="216" y="535" width="20" height="10"></rect></g><g transform="translate(-86,-30) scale(1,1)"><path fill="none" stroke="#0f61f7" d="M 216 535 L 236 535 L 236 545 L 216 545 L 216 535 Z Z" stroke-miterlimit="10"></path></g><g transform="translate(-86,-30) scale(1,1)"><rect fill="#a4c4ff" stroke="none" x="216" y="555" width="20" height="10"></rect></g><g transform="translate(-86,-30) scale(1,1)"><path fill="none" stroke="#0f61f7" d="M 216 555 L 236 555 L 236 565 L 216 565 L 216 555 Z Z" stroke-miterlimit="10"></path></g><g transform="translate(-86,-30) scale(1,1)"><g><path fill="none" stroke="none"></path><text fill="#676767" stroke="none" font-family="Arial" font-size="13px" font-style="normal" font-weight="bold" text-decoration="none" x="269" y="547.5">OS SDK</text></g></g><g transform="translate(-86,-30) scale(1,1)"><path fill="none" stroke="#0f61f7" d="M 284 599 L 284 573" stroke-miterlimit="10" stroke-dasharray="3"></path></g><g transform="translate(-86,-30) scale(1,1)"><path fill="none" stroke="#0f61f7" d="M 288.209517756016 583.1626748576241 L 284 573 L 279.790482243984 583.1626748576241" stroke-miterlimit="10"></path></g><g transform="translate(-86,-30) scale(1,1)"><path fill="none" stroke="#0f61f7" d="M 290 527 L 352 269" stroke-miterlimit="10" stroke-dasharray="3"></path></g><g transform="translate(-86,-30) scale(1,1)"><path fill="none" stroke="#0f61f7" d="M 353.7184029832132 279.8649478225753 L 352 269 L 345.53241611966024 277.89777268482226" stroke-miterlimit="10"></path></g><g transform="translate(-86,-30) scale(1,1)"><g><path fill="none" stroke="none"></path><text fill="#676767" stroke="none" font-family="Arial" font-size="13px" font-style="normal" font-weight="normal" text-decoration="none" x="265" y="397">«deploy»</text></g></g><g transform="translate(-86,-30) scale(1,1)"><path fill="none" stroke="#0f61f7" d="M 375 495 L 372 245" stroke-miterlimit="10" stroke-dasharray="3"></path></g><g transform="translate(-86,-30) scale(1,1)"><path fill="none" stroke="#0f61f7" d="M 376.3311580221554 255.1114326476083 L 372 245 L 367.91272861522174 255.2124538004915" stroke-miterlimit="10"></path></g><g transform="translate(-86,-30) scale(1,1)"><g><path fill="none" stroke="none"></path><text fill="#676767" stroke="none" font-family="Arial" font-size="13px" font-style="normal" font-weight="normal" text-decoration="none" x="391" y="375">«use»</text></g></g><g transform="translate(-86,-30) scale(1,1)"><path fill="#C0C0C0" stroke="none" d="M 879 105 L 1004 105 L 1004 190 L 879 190" opacity="0.2"></path></g><g transform="translate(-86,-30) scale(1,1)"><path fill="#C0C0C0" stroke="none" d="M 879 105 L 889 95 L 1014 95 L 1004 105" opacity="0.2"></path></g><g transform="translate(-86,-30) scale(1,1)"><path fill="#C0C0C0" stroke="none" d="M 1014 95 L 1004 105 L 1004 190 L 1014 180" opacity="0.2"></path></g><g transform="translate(-86,-30) scale(1,1)"><path fill="#a4c4ff" stroke="none" d="M 872 98 L 997 98 L 997 183 L 872 183"></path></g><g transform="translate(-86,-30) scale(1,1)"><path fill="#a4c4ff" stroke="none" d="M 872 98 L 882 88 L 1007 88 L 997 98"></path></g><g transform="translate(-86,-30) scale(1,1)"><path fill="#a4c4ff" stroke="none" d="M 1007 88 L 997 98 L 997 183 L 1007 173"></path></g><g transform="translate(-86,-30) scale(1,1)"><path fill="none" stroke="#0f61f7" d="M 872 98 L 997 98 L 997 183 L 872 183 L 872 98" stroke-miterlimit="10"></path></g><g transform="translate(-86,-30) scale(1,1)"><path fill="none" stroke="#0f61f7" d="M 872 98 L 882 88 L 1007 88 L 997 98 L 872 98" stroke-miterlimit="10"></path></g><g transform="translate(-86,-30) scale(1,1)"><path fill="none" stroke="#0f61f7" d="M 1007 88 L 997 98 L 997 183 L 1007 173 L 1007 88" stroke-miterlimit="10"></path></g><g transform="translate(-86,-30) scale(1,1)"><g><path fill="none" stroke="none"></path><text fill="#676767" stroke="none" font-family="Arial" font-size="13px" font-style="normal" font-weight="normal" text-decoration="none" x="918" y="115.5">«VM»</text></g></g><g transform="translate(-86,-30) scale(1,1)"><g><path fill="none" stroke="none"></path><text fill="#676767" stroke="none" font-family="Arial" font-size="13px" font-style="normal" font-weight="bold" text-decoration="none" x="913" y="130.5">Jenkins</text></g></g><g transform="translate(-86,-30) scale(1,1)"><path fill="none" stroke="#0f61f7" d="M 801 136 L 871 136" stroke-miterlimit="10" stroke-dasharray="3"></path></g><g transform="translate(-86,-30) scale(1,1)"><path fill="none" stroke="#0f61f7" d="M 860.8373251423759 140.209517756016 L 871 136 L 860.8373251423758 131.790482243984" stroke-miterlimit="10"></path></g><g transform="translate(-86,-30) scale(1,1)"><g><path fill="none" stroke="none"></path><text fill="#676767" stroke="none" font-family="Arial" font-size="13px" font-style="normal" font-weight="normal" text-decoration="none" x="810" y="113">«deploy»</text></g></g><g transform="translate(-86,-30) scale(1,1)"><path fill="none" stroke="#0f61f7" d="M 1009 135 L 1111 135" stroke-miterlimit="10" stroke-dasharray="3"></path></g><g transform="translate(-86,-30) scale(1,1)"><path fill="none" stroke="#0f61f7" d="M 1100.837325142376 139.209517756016 L 1111 135 L 1100.837325142376 130.790482243984" stroke-miterlimit="10"></path></g><g transform="translate(-86,-30) scale(1,1)"><g><path fill="none" stroke="none"></path><text fill="#676767" stroke="none" font-family="Arial" font-size="13px" font-style="normal" font-weight="normal" text-decoration="none" x="1034" y="112">«deploy»</text></g></g><g transform="translate(-86,-30) scale(1,1)"><path fill="#C0C0C0" stroke="none" d="M 887 297 L 1004 297 L 1004 378 L 887 378" opacity="0.2"></path></g><g transform="translate(-86,-30) scale(1,1)"><path fill="#C0C0C0" stroke="none" d="M 887 297 L 897 287 L 1014 287 L 1004 297" opacity="0.2"></path></g><g transform="translate(-86,-30) scale(1,1)"><path fill="#C0C0C0" stroke="none" d="M 1014 287 L 1004 297 L 1004 378 L 1014 368" opacity="0.2"></path></g><g transform="translate(-86,-30) scale(1,1)"><path fill="#a4c4ff" stroke="none" d="M 880 290 L 997 290 L 997 371 L 880 371"></path></g><g transform="translate(-86,-30) scale(1,1)"><path fill="#a4c4ff" stroke="none" d="M 880 290 L 890 280 L 1007 280 L 997 290"></path></g><g transform="translate(-86,-30) scale(1,1)"><path fill="#a4c4ff" stroke="none" d="M 1007 280 L 997 290 L 997 371 L 1007 361"></path></g><g transform="translate(-86,-30) scale(1,1)"><path fill="none" stroke="#0f61f7" d="M 880 290 L 997 290 L 997 371 L 880 371 L 880 290" stroke-miterlimit="10"></path></g><g transform="translate(-86,-30) scale(1,1)"><path fill="none" stroke="#0f61f7" d="M 880 290 L 890 280 L 1007 280 L 997 290 L 880 290" stroke-miterlimit="10"></path></g><g transform="translate(-86,-30) scale(1,1)"><path fill="none" stroke="#0f61f7" d="M 1007 280 L 997 290 L 997 371 L 1007 361 L 1007 280" stroke-miterlimit="10"></path></g><g transform="translate(-86,-30) scale(1,1)"><g><path fill="none" stroke="none"></path><text fill="#676767" stroke="none" font-family="Arial" font-size="13px" font-style="normal" font-weight="bold" text-decoration="none" x="913.5" y="309.5">Test Cell</text></g></g><g transform="translate(-86,-30) scale(1,1)"><path fill="none" stroke="#0f61f7" d="M 941 185 L 943 279" stroke-miterlimit="10" stroke-dasharray="3"></path></g><g transform="translate(-86,-30) scale(1,1)"><path fill="none" stroke="#0f61f7" d="M 938.5752565323953 268.9291685921226 L 943 279 L 946.9923870697424 268.7500807083493" stroke-miterlimit="10"></path></g><g transform="translate(-86,-30) scale(1,1)"><g><path fill="none" stroke="none"></path><text fill="#676767" stroke="none" font-family="Arial" font-size="13px" font-style="normal" font-weight="normal" text-decoration="none" x="945" y="238">«deploy»</text></g></g><g transform="translate(-86,-30) scale(1,1)"><path fill="none" stroke="#0f61f7" d="M 407 189 L 1111 647" stroke-miterlimit="10" stroke-dasharray="3"></path></g><g transform="translate(-86,-30) scale(1,1)"><path fill="none" stroke="#0f61f7" d="M 1100.1858351392125 644.9865853969669 L 1111 647 L 1104.7769298132125 637.9295315749231" stroke-miterlimit="10"></path></g><g transform="translate(-86,-30) scale(1,1)"><g><path fill="none" stroke="none"></path><text fill="#676767" stroke="none" font-family="Arial" font-size="13px" font-style="normal" font-weight="normal" text-decoration="none" x="749" y="399">«deploy»</text></g></g></g></svg>