<?xml version="1.0" encoding="UTF-8" standalone="no"?>
<!-- Generator: Adobe Illustrator 17.0.0, SVG Export Plug-In . SVG Version: 6.00 Build 0)  -->

<svg
   xmlns:dc="http://purl.org/dc/elements/1.1/"
   xmlns:cc="http://creativecommons.org/ns#"
   xmlns:rdf="http://www.w3.org/1999/02/22-rdf-syntax-ns#"
   xmlns:svg="http://www.w3.org/2000/svg"
   xmlns="http://www.w3.org/2000/svg"
   xmlns:sodipodi="http://sodipodi.sourceforge.net/DTD/sodipodi-0.dtd"
   xmlns:inkscape="http://www.inkscape.org/namespaces/inkscape"
   version="1.1"
   id="Ebene_1"
   x="0px"
   y="0px"
   width="112"
   height="47"
   viewBox="0 0 112 47"
   enable-background="new 0 0 240 47"
   xml:space="preserve"
   inkscape:version="0.91 r"
   sodipodi:docname="sca-logo.svg"><metadata
     id="metadata65"><rdf:RDF><cc:Work
         rdf:about=""><dc:format>image/svg+xml</dc:format><dc:type
           rdf:resource="http://purl.org/dc/dcmitype/StillImage" /><dc:title></dc:title></cc:Work></rdf:RDF></metadata><defs
     id="defs63" /><sodipodi:namedview
     pagecolor="#ffffff"
     bordercolor="#666666"
     borderopacity="1"
     objecttolerance="10"
     gridtolerance="10"
     guidetolerance="10"
     inkscape:pageopacity="0"
     inkscape:pageshadow="2"
     inkscape:window-width="1916"
     inkscape:window-height="1036"
     id="namedview61"
     showgrid="false"
     inkscape:zoom="3.725"
     inkscape:cx="93.759318"
     inkscape:cy="2.4875771"
     inkscape:window-x="1920"
     inkscape:window-y="42"
     inkscape:window-maximized="0"
     inkscape:current-layer="Ebene_1" /><path
     d="m 103.04,46.637 -103.04,0 0,-5.026 103.04,0 c 2.491,0 3.363,-1.715 3.363,-5.678 l 0,-14.192 5.026,0 0,14.193 c 0,3.619 0,10.703 -8.389,10.703 z"
     id="path3"
     inkscape:connector-curvature="0"
     style="fill:#ff0000" /><path
     d="M 14.999,36.698 C 10.067,36.698 5.872,35.203 3.187,32.487 1.035,30.31 -0.037,27.484 0.002,24.091 l 0.005,-0.435 8.153,0 0,0.439 c 0,5.309 4.985,5.882 7.127,5.882 1.46,0 6.22,-0.274 6.22,-3.823 0,-2.802 -3.531,-3.668 -7.617,-4.669 -0.728,-0.179 -1.47,-0.36 -2.21,-0.558 C 6.584,19.584 1.15,17.578 1.15,10.781 1.15,3.702 7.803,0 14.377,0 21.21,0 28.512,3.008 28.512,11.452 l 0,0.439 -8.132,0 -0.024,-0.414 c -0.192,-3.291 -2.139,-4.76 -6.315,-4.76 -0.79,0 -4.735,0.167 -4.735,3.441 0,2.132 1.033,2.478 9.107,4.551 l 1.06,0.268 c 2.786,0.684 10.188,2.5 10.188,10.315 0,6.93 -5.756,11.406 -14.662,11.406"
     id="path5"
     inkscape:connector-curvature="0"
     style="fill:#ff0000" /><path
     d="M 49,36.698 C 38.844,36.698 31.751,29.211 31.751,18.491 31.752,7.432 38.684,0 49,0 57.209,0 63.311,5.101 64.186,12.696 l 0.056,0.488 -8.151,0 -0.053,-0.378 C 55.594,9.661 52.503,7.197 49,7.197 c -8.214,0 -8.852,8.645 -8.852,11.294 0,5.322 2.326,11.009 8.852,11.009 4.065,0 6.735,-2.655 7.325,-7.281 l 0.049,-0.383 8.144,0 -0.043,0.479 C 63.692,31.052 57.617,36.698 49,36.698"
     id="path7"
     inkscape:connector-curvature="0"
     style="fill:#ff0000" /><path
     d="M 86.028,21.79 82.28,10.873 78.404,21.79 l 7.624,0 z m 4.851,14.094 -2.586,-7.615 -12.161,0 -2.684,7.615 -8.56,0 13.312,-35.07 8.316,0 13.116,35.07 -8.753,0 z"
     id="path9"
     inkscape:connector-curvature="0" /></svg>