<svg version="1.1" xmlns="http://www.w3.org/2000/svg" xmlns:xlink="http://www.w3.org/1999/xlink" width="1428" height="772"><defs></defs><g><g transform="translate(-38,-118) scale(1,1)"><rect fill="#C0C0C0" stroke="none" x="289" y="135" width="854" height="144" opacity="0.2"></rect></g><g transform="translate(-38,-118) scale(1,1)"><rect fill="#e2e2e2" stroke="none" x="282" y="128" width="854" height="144"></rect></g><g transform="translate(-38,-118) scale(1,1)"><path fill="none" stroke="#ff5656" d="M 282 128 L 1136 128 L 1136 272 L 282 272 L 282 128 Z Z" stroke-miterlimit="10"></path></g><g transform="translate(-38,-118) scale(1,1)"><rect fill="#e2e2e2" stroke="none" x="272" y="135" width="20" height="10"></rect></g><g transform="translate(-38,-118) scale(1,1)"><path fill="none" stroke="#ff5656" d="M 272 135 L 292 135 L 292 145 L 272 145 L 272 135 Z Z" stroke-miterlimit="10"></path></g><g transform="translate(-38,-118) scale(1,1)"><rect fill="#e2e2e2" stroke="none" x="272" y="155" width="20" height="10"></rect></g><g transform="translate(-38,-118) scale(1,1)"><path fill="none" stroke="#ff5656" d="M 272 155 L 292 155 L 292 165 L 272 165 L 272 155 Z Z" stroke-miterlimit="10"></path></g><g transform="translate(-38,-118) scale(1,1)"><g><path fill="none" stroke="none"></path><text fill="#676767" stroke="none" font-family="Helvetica" font-size="12px" font-style="normal" font-weight="bold" text-decoration="none" x="673" y="146.5">Jenkins Master</text></g></g><g transform="translate(-38,-118) scale(1,1)"><rect fill="#C0C0C0" stroke="none" x="1233" y="327" width="230" height="384" opacity="0.2"></rect></g><g transform="translate(-38,-118) scale(1,1)"><rect fill="#a4c4ff" stroke="none" x="1226" y="320" width="230" height="384"></rect></g><g transform="translate(-38,-118) scale(1,1)"><path fill="none" stroke="#0f61f7" d="M 1226 320 L 1456 320 L 1456 704 L 1226 704 L 1226 320 Z Z" stroke-miterlimit="10"></path></g><g transform="translate(-38,-118) scale(1,1)"><rect fill="#a4c4ff" stroke="none" x="1216" y="327" width="20" height="10"></rect></g><g transform="translate(-38,-118) scale(1,1)"><path fill="none" stroke="#0f61f7" d="M 1216 327 L 1236 327 L 1236 337 L 1216 337 L 1216 327 Z Z" stroke-miterlimit="10"></path></g><g transform="translate(-38,-118) scale(1,1)"><rect fill="#a4c4ff" stroke="none" x="1216" y="347" width="20" height="10"></rect></g><g transform="translate(-38,-118) scale(1,1)"><path fill="none" stroke="#0f61f7" d="M 1216 347 L 1236 347 L 1236 357 L 1216 357 L 1216 347 Z Z" stroke-miterlimit="10"></path></g><g transform="translate(-38,-118) scale(1,1)"><g><path fill="none" stroke="none"></path><text fill="#676767" stroke="none" font-family="Helvetica" font-size="12px" font-style="normal" font-weight="normal" text-decoration="none" x="1307" y="336.5">«DockerHost»</text></g></g><g transform="translate(-38,-118) scale(1,1)"><g><path fill="none" stroke="none"></path><text fill="#676767" stroke="none" font-family="Helvetica" font-size="12px" font-style="normal" font-weight="bold" text-decoration="none" x="1308" y="350.5">Jenkins Slave</text></g></g><g transform="translate(-38,-118) scale(1,1)"><rect fill="#C0C0C0" stroke="none" x="65" y="343" width="198" height="288" opacity="0.2"></rect></g><g transform="translate(-38,-118) scale(1,1)"><rect fill="#a4c4ff" stroke="none" x="58" y="336" width="198" height="288"></rect></g><g transform="translate(-38,-118) scale(1,1)"><path fill="none" stroke="#0f61f7" d="M 58 336 L 256 336 L 256 624 L 58 624 L 58 336 Z Z" stroke-miterlimit="10"></path></g><g transform="translate(-38,-118) scale(1,1)"><rect fill="#a4c4ff" stroke="none" x="48" y="343" width="20" height="10"></rect></g><g transform="translate(-38,-118) scale(1,1)"><path fill="none" stroke="#0f61f7" d="M 48 343 L 68 343 L 68 353 L 48 353 L 48 343 Z Z" stroke-miterlimit="10"></path></g><g transform="translate(-38,-118) scale(1,1)"><rect fill="#a4c4ff" stroke="none" x="48" y="363" width="20" height="10"></rect></g><g transform="translate(-38,-118) scale(1,1)"><path fill="none" stroke="#0f61f7" d="M 48 363 L 68 363 L 68 373 L 48 373 L 48 363 Z Z" stroke-miterlimit="10"></path></g><g transform="translate(-38,-118) scale(1,1)"><g><path fill="none" stroke="none"></path><text fill="#676767" stroke="none" font-family="Helvetica" font-size="12px" font-style="normal" font-weight="bold" text-decoration="none" x="146" y="354.5">Gitlab</text></g></g><g transform="translate(-38,-118) scale(1,1)"><rect fill="#C0C0C0" stroke="none" x="345" y="183" width="136" height="49" opacity="0.2"></rect></g><g transform="translate(-38,-118) scale(1,1)"><rect fill="#ff5656" stroke="none" x="338" y="176" width="136" height="49"></rect></g><g transform="translate(-38,-118) scale(1,1)"><path fill="none" stroke="#aaaaaa" d="M 338 176 L 474 176 L 474 225 L 338 225 L 338 176 Z Z" stroke-miterlimit="10"></path></g><g transform="translate(-38,-118) scale(1,1)"><rect fill="#ff5656" stroke="none" x="328" y="183" width="20" height="10"></rect></g><g transform="translate(-38,-118) scale(1,1)"><path fill="none" stroke="#aaaaaa" d="M 328 183 L 348 183 L 348 193 L 328 193 L 328 183 Z Z" stroke-miterlimit="10"></path></g><g transform="translate(-38,-118) scale(1,1)"><rect fill="#ff5656" stroke="none" x="328" y="203" width="20" height="10"></rect></g><g transform="translate(-38,-118) scale(1,1)"><path fill="none" stroke="#aaaaaa" d="M 328 203 L 348 203 L 348 213 L 328 213 L 328 203 Z Z" stroke-miterlimit="10"></path></g><g transform="translate(-38,-118) scale(1,1)"><g><path fill="none" stroke="none"></path><text fill="#676767" stroke="none" font-family="Helvetica" font-size="12px" font-style="normal" font-weight="normal" text-decoration="none" x="394" y="192.5">«Job»</text></g></g><g transform="translate(-38,-118) scale(1,1)"><g><path fill="none" stroke="none"></path><text fill="#676767" stroke="none" font-family="Helvetica" font-size="12px" font-style="normal" font-weight="bold" text-decoration="none" x="366.5" y="206.5">ApplicationBuild</text></g></g><g transform="translate(-38,-118) scale(1,1)"><g><path fill="none" stroke="none"></path><text fill="#676767" stroke="none" font-family="Helvetica" font-size="12px" font-style="normal" font-weight="normal" text-decoration="none" x="352.5" y="220.5">(from Jenkins Master)</text></g></g><g transform="translate(-38,-118) scale(1,1)"><rect fill="#C0C0C0" stroke="none" x="505" y="183" width="136" height="49" opacity="0.2"></rect></g><g transform="translate(-38,-118) scale(1,1)"><rect fill="#ff5656" stroke="none" x="498" y="176" width="136" height="49"></rect></g><g transform="translate(-38,-118) scale(1,1)"><path fill="none" stroke="#aaaaaa" d="M 498 176 L 634 176 L 634 225 L 498 225 L 498 176 Z Z" stroke-miterlimit="10"></path></g><g transform="translate(-38,-118) scale(1,1)"><rect fill="#ff5656" stroke="none" x="488" y="183" width="20" height="10"></rect></g><g transform="translate(-38,-118) scale(1,1)"><path fill="none" stroke="#aaaaaa" d="M 488 183 L 508 183 L 508 193 L 488 193 L 488 183 Z Z" stroke-miterlimit="10"></path></g><g transform="translate(-38,-118) scale(1,1)"><rect fill="#ff5656" stroke="none" x="488" y="203" width="20" height="10"></rect></g><g transform="translate(-38,-118) scale(1,1)"><path fill="none" stroke="#aaaaaa" d="M 488 203 L 508 203 L 508 213 L 488 213 L 488 203 Z Z" stroke-miterlimit="10"></path></g><g transform="translate(-38,-118) scale(1,1)"><g><path fill="none" stroke="none"></path><text fill="#676767" stroke="none" font-family="Helvetica" font-size="12px" font-style="normal" font-weight="normal" text-decoration="none" x="554" y="192.5">«Job»</text></g></g><g transform="translate(-38,-118) scale(1,1)"><g><path fill="none" stroke="none"></path><text fill="#676767" stroke="none" font-family="Helvetica" font-size="12px" font-style="normal" font-weight="bold" text-decoration="none" x="540" y="206.5">ImageBuild</text></g></g><g transform="translate(-38,-118) scale(1,1)"><g><path fill="none" stroke="none"></path><text fill="#676767" stroke="none" font-family="Helvetica" font-size="12px" font-style="normal" font-weight="normal" text-decoration="none" x="512.5" y="220.5">(from Jenkins Master)</text></g></g><g transform="translate(-38,-118) scale(1,1)"><rect fill="#C0C0C0" stroke="none" x="665" y="183" width="136" height="49" opacity="0.2"></rect></g><g transform="translate(-38,-118) scale(1,1)"><rect fill="#ff5656" stroke="none" x="658" y="176" width="136" height="49"></rect></g><g transform="translate(-38,-118) scale(1,1)"><path fill="none" stroke="#aaaaaa" d="M 658 176 L 794 176 L 794 225 L 658 225 L 658 176 Z Z" stroke-miterlimit="10"></path></g><g transform="translate(-38,-118) scale(1,1)"><rect fill="#ff5656" stroke="none" x="648" y="183" width="20" height="10"></rect></g><g transform="translate(-38,-118) scale(1,1)"><path fill="none" stroke="#aaaaaa" d="M 648 183 L 668 183 L 668 193 L 648 193 L 648 183 Z Z" stroke-miterlimit="10"></path></g><g transform="translate(-38,-118) scale(1,1)"><rect fill="#ff5656" stroke="none" x="648" y="203" width="20" height="10"></rect></g><g transform="translate(-38,-118) scale(1,1)"><path fill="none" stroke="#aaaaaa" d="M 648 203 L 668 203 L 668 213 L 648 213 L 648 203 Z Z" stroke-miterlimit="10"></path></g><g transform="translate(-38,-118) scale(1,1)"><g><path fill="none" stroke="none"></path><text fill="#676767" stroke="none" font-family="Helvetica" font-size="12px" font-style="normal" font-weight="normal" text-decoration="none" x="714" y="192.5">«Job»</text></g></g><g transform="translate(-38,-118) scale(1,1)"><g><path fill="none" stroke="none"></path><text fill="#676767" stroke="none" font-family="Helvetica" font-size="12px" font-style="normal" font-weight="bold" text-decoration="none" x="694.5" y="206.5">ImageDeploy</text></g></g><g transform="translate(-38,-118) scale(1,1)"><g><path fill="none" stroke="none"></path><text fill="#676767" stroke="none" font-family="Helvetica" font-size="12px" font-style="normal" font-weight="normal" text-decoration="none" x="672.5" y="220.5">(from Jenkins Master)</text></g></g><g transform="translate(-38,-118) scale(1,1)"><rect fill="#C0C0C0" stroke="none" x="825" y="183" width="136" height="49" opacity="0.2"></rect></g><g transform="translate(-38,-118) scale(1,1)"><rect fill="#ff5656" stroke="none" x="818" y="176" width="136" height="49"></rect></g><g transform="translate(-38,-118) scale(1,1)"><path fill="none" stroke="#aaaaaa" d="M 818 176 L 954 176 L 954 225 L 818 225 L 818 176 Z Z" stroke-miterlimit="10"></path></g><g transform="translate(-38,-118) scale(1,1)"><rect fill="#ff5656" stroke="none" x="808" y="183" width="20" height="10"></rect></g><g transform="translate(-38,-118) scale(1,1)"><path fill="none" stroke="#aaaaaa" d="M 808 183 L 828 183 L 828 193 L 808 193 L 808 183 Z Z" stroke-miterlimit="10"></path></g><g transform="translate(-38,-118) scale(1,1)"><rect fill="#ff5656" stroke="none" x="808" y="203" width="20" height="10"></rect></g><g transform="translate(-38,-118) scale(1,1)"><path fill="none" stroke="#aaaaaa" d="M 808 203 L 828 203 L 828 213 L 808 213 L 808 203 Z Z" stroke-miterlimit="10"></path></g><g transform="translate(-38,-118) scale(1,1)"><g><path fill="none" stroke="none"></path><text fill="#676767" stroke="none" font-family="Helvetica" font-size="12px" font-style="normal" font-weight="normal" text-decoration="none" x="874" y="192.5">«Job»</text></g></g><g transform="translate(-38,-118) scale(1,1)"><g><path fill="none" stroke="none"></path><text fill="#676767" stroke="none" font-family="Helvetica" font-size="12px" font-style="normal" font-weight="bold" text-decoration="none" x="850.5" y="206.5">IntegrationTest</text></g></g><g transform="translate(-38,-118) scale(1,1)"><g><path fill="none" stroke="none"></path><text fill="#676767" stroke="none" font-family="Helvetica" font-size="12px" font-style="normal" font-weight="normal" text-decoration="none" x="832.5" y="220.5">(from Jenkins Master)</text></g></g><g transform="translate(-38,-118) scale(1,1)"><rect fill="#C0C0C0" stroke="none" x="985" y="183" width="136" height="49" opacity="0.2"></rect></g><g transform="translate(-38,-118) scale(1,1)"><rect fill="#ff5656" stroke="none" x="978" y="176" width="136" height="49"></rect></g><g transform="translate(-38,-118) scale(1,1)"><path fill="none" stroke="#aaaaaa" d="M 978 176 L 1114 176 L 1114 225 L 978 225 L 978 176 Z Z" stroke-miterlimit="10"></path></g><g transform="translate(-38,-118) scale(1,1)"><rect fill="#ff5656" stroke="none" x="968" y="183" width="20" height="10"></rect></g><g transform="translate(-38,-118) scale(1,1)"><path fill="none" stroke="#aaaaaa" d="M 968 183 L 988 183 L 988 193 L 968 193 L 968 183 Z Z" stroke-miterlimit="10"></path></g><g transform="translate(-38,-118) scale(1,1)"><rect fill="#ff5656" stroke="none" x="968" y="203" width="20" height="10"></rect></g><g transform="translate(-38,-118) scale(1,1)"><path fill="none" stroke="#aaaaaa" d="M 968 203 L 988 203 L 988 213 L 968 213 L 968 203 Z Z" stroke-miterlimit="10"></path></g><g transform="translate(-38,-118) scale(1,1)"><g><path fill="none" stroke="none"></path><text fill="#676767" stroke="none" font-family="Helvetica" font-size="12px" font-style="normal" font-weight="normal" text-decoration="none" x="1034" y="192.5">«Job»</text></g></g><g transform="translate(-38,-118) scale(1,1)"><g><path fill="none" stroke="none"></path><text fill="#676767" stroke="none" font-family="Helvetica" font-size="12px" font-style="normal" font-weight="bold" text-decoration="none" x="1030.5" y="206.5">Publish</text></g></g><g transform="translate(-38,-118) scale(1,1)"><g><path fill="none" stroke="none"></path><text fill="#676767" stroke="none" font-family="Helvetica" font-size="12px" font-style="normal" font-weight="normal" text-decoration="none" x="992.5" y="220.5">(from Jenkins Master)</text></g></g><g transform="translate(-38,-118) scale(1,1)"><path fill="none" stroke="#0f61f7" d="M 440 225 L 440 248 L 536 248 L 536 225" stroke-miterlimit="10" stroke-dasharray="3"></path></g><g transform="translate(-38,-118) scale(1,1)"><path fill="none" stroke="#0f61f7" d="M 540.209517756016 235.16267485762415 L 536 225 L 531.790482243984 235.16267485762415" stroke-miterlimit="10"></path></g><g transform="translate(-38,-118) scale(1,1)"><g><path fill="none" stroke="none"></path><text fill="#676767" stroke="none" font-family="Helvetica" font-size="12px" font-style="normal" font-weight="normal" text-decoration="none" x="467" y="239">+trigger</text></g></g><g transform="translate(-38,-118) scale(1,1)"><path fill="none" stroke="#0f61f7" d="M 592 225 L 592 248 L 696 248 L 696 225" stroke-miterlimit="10" stroke-dasharray="3"></path></g><g transform="translate(-38,-118) scale(1,1)"><path fill="none" stroke="#0f61f7" d="M 700.209517756016 235.16267485762415 L 696 225 L 691.790482243984 235.16267485762415" stroke-miterlimit="10"></path></g><g transform="translate(-38,-118) scale(1,1)"><g><path fill="none" stroke="none"></path><text fill="#676767" stroke="none" font-family="Helvetica" font-size="12px" font-style="normal" font-weight="normal" text-decoration="none" x="623" y="239">+trigger</text></g></g><g transform="translate(-38,-118) scale(1,1)"><path fill="none" stroke="#0f61f7" d="M 752 225 L 752 248 L 856 248 L 856 225" stroke-miterlimit="10" stroke-dasharray="3"></path></g><g transform="translate(-38,-118) scale(1,1)"><path fill="none" stroke="#0f61f7" d="M 860.209517756016 235.16267485762415 L 856 225 L 851.790482243984 235.16267485762415" stroke-miterlimit="10"></path></g><g transform="translate(-38,-118) scale(1,1)"><g><path fill="none" stroke="none"></path><text fill="#676767" stroke="none" font-family="Helvetica" font-size="12px" font-style="normal" font-weight="normal" text-decoration="none" x="783" y="239">+trigger</text></g></g><g transform="translate(-38,-118) scale(1,1)"><path fill="none" stroke="#0f61f7" d="M 936 225 L 936 248 L 1016 248 L 1016 225" stroke-miterlimit="10" stroke-dasharray="3"></path></g><g transform="translate(-38,-118) scale(1,1)"><path fill="none" stroke="#0f61f7" d="M 1020.209517756016 235.16267485762415 L 1016 225 L 1011.790482243984 235.16267485762415" stroke-miterlimit="10"></path></g><g transform="translate(-38,-118) scale(1,1)"><g><path fill="none" stroke="none"></path><text fill="#676767" stroke="none" font-family="Helvetica" font-size="12px" font-style="normal" font-weight="normal" text-decoration="none" x="955" y="239">+trigger</text></g></g><g transform="translate(-38,-118) scale(1,1)"><rect fill="#C0C0C0" stroke="none" x="105" y="527" width="112" height="49" opacity="0.2"></rect></g><g transform="translate(-38,-118) scale(1,1)"><rect fill="#a4c4ff" stroke="none" x="98" y="520" width="112" height="49"></rect></g><g transform="translate(-38,-118) scale(1,1)"><path fill="none" stroke="#0f61f7" d="M 98 520 L 210 520 L 210 569 L 98 569 L 98 520 Z Z" stroke-miterlimit="10"></path></g><g transform="translate(-38,-118) scale(1,1)"><rect fill="#a4c4ff" stroke="none" x="88" y="527" width="20" height="10"></rect></g><g transform="translate(-38,-118) scale(1,1)"><path fill="none" stroke="#0f61f7" d="M 88 527 L 108 527 L 108 537 L 88 537 L 88 527 Z Z" stroke-miterlimit="10"></path></g><g transform="translate(-38,-118) scale(1,1)"><rect fill="#a4c4ff" stroke="none" x="88" y="547" width="20" height="10"></rect></g><g transform="translate(-38,-118) scale(1,1)"><path fill="none" stroke="#0f61f7" d="M 88 547 L 108 547 L 108 557 L 88 557 L 88 547 Z Z" stroke-miterlimit="10"></path></g><g transform="translate(-38,-118) scale(1,1)"><g><path fill="none" stroke="none"></path><text fill="#676767" stroke="none" font-family="Helvetica" font-size="12px" font-style="normal" font-weight="normal" text-decoration="none" x="142" y="536.5">«Job»</text></g></g><g transform="translate(-38,-118) scale(1,1)"><g><path fill="none" stroke="none"></path><text fill="#676767" stroke="none" font-family="Helvetica" font-size="12px" font-style="normal" font-weight="bold" text-decoration="none" x="115.5" y="550.5">IntegrationTests</text></g></g><g transform="translate(-38,-118) scale(1,1)"><g><path fill="none" stroke="none"></path><text fill="#676767" stroke="none" font-family="Helvetica" font-size="12px" font-style="normal" font-weight="normal" text-decoration="none" x="125.5" y="564.5">(from Gitlab)</text></g></g><g transform="translate(-38,-118) scale(1,1)"><rect fill="#C0C0C0" stroke="none" x="113" y="463" width="92" height="49" opacity="0.2"></rect></g><g transform="translate(-38,-118) scale(1,1)"><rect fill="#a4c4ff" stroke="none" x="106" y="456" width="92" height="49"></rect></g><g transform="translate(-38,-118) scale(1,1)"><path fill="none" stroke="#0f61f7" d="M 106 456 L 198 456 L 198 505 L 106 505 L 106 456 Z Z" stroke-miterlimit="10"></path></g><g transform="translate(-38,-118) scale(1,1)"><rect fill="#a4c4ff" stroke="none" x="96" y="463" width="20" height="10"></rect></g><g transform="translate(-38,-118) scale(1,1)"><path fill="none" stroke="#0f61f7" d="M 96 463 L 116 463 L 116 473 L 96 473 L 96 463 Z Z" stroke-miterlimit="10"></path></g><g transform="translate(-38,-118) scale(1,1)"><rect fill="#a4c4ff" stroke="none" x="96" y="483" width="20" height="10"></rect></g><g transform="translate(-38,-118) scale(1,1)"><path fill="none" stroke="#0f61f7" d="M 96 483 L 116 483 L 116 493 L 96 493 L 96 483 Z Z" stroke-miterlimit="10"></path></g><g transform="translate(-38,-118) scale(1,1)"><g><path fill="none" stroke="none"></path><text fill="#676767" stroke="none" font-family="Helvetica" font-size="12px" font-style="normal" font-weight="normal" text-decoration="none" x="120.5" y="472.5">«Repository»</text></g></g><g transform="translate(-38,-118) scale(1,1)"><g><path fill="none" stroke="none"></path><text fill="#676767" stroke="none" font-family="Helvetica" font-size="12px" font-style="normal" font-weight="bold" text-decoration="none" x="148.5" y="486.5">OS</text></g></g><g transform="translate(-38,-118) scale(1,1)"><g><path fill="none" stroke="none"></path><text fill="#676767" stroke="none" font-family="Helvetica" font-size="12px" font-style="normal" font-weight="normal" text-decoration="none" x="123.5" y="500.5">(from Gitlab)</text></g></g><g transform="translate(-38,-118) scale(1,1)"><rect fill="#C0C0C0" stroke="none" x="115" y="402" width="92" height="49" opacity="0.2"></rect></g><g transform="translate(-38,-118) scale(1,1)"><rect fill="#a4c4ff" stroke="none" x="108" y="395" width="92" height="49"></rect></g><g transform="translate(-38,-118) scale(1,1)"><path fill="none" stroke="#0f61f7" d="M 108 395 L 200 395 L 200 444 L 108 444 L 108 395 Z Z" stroke-miterlimit="10"></path></g><g transform="translate(-38,-118) scale(1,1)"><rect fill="#a4c4ff" stroke="none" x="98" y="402" width="20" height="10"></rect></g><g transform="translate(-38,-118) scale(1,1)"><path fill="none" stroke="#0f61f7" d="M 98 402 L 118 402 L 118 412 L 98 412 L 98 402 Z Z" stroke-miterlimit="10"></path></g><g transform="translate(-38,-118) scale(1,1)"><rect fill="#a4c4ff" stroke="none" x="98" y="422" width="20" height="10"></rect></g><g transform="translate(-38,-118) scale(1,1)"><path fill="none" stroke="#0f61f7" d="M 98 422 L 118 422 L 118 432 L 98 432 L 98 422 Z Z" stroke-miterlimit="10"></path></g><g transform="translate(-38,-118) scale(1,1)"><g><path fill="none" stroke="none"></path><text fill="#676767" stroke="none" font-family="Helvetica" font-size="12px" font-style="normal" font-weight="normal" text-decoration="none" x="122.5" y="411.5">«Repository»</text></g></g><g transform="translate(-38,-118) scale(1,1)"><g><path fill="none" stroke="none"></path><text fill="#676767" stroke="none" font-family="Helvetica" font-size="12px" font-style="normal" font-weight="bold" text-decoration="none" x="128.5" y="425.5">Application</text></g></g><g transform="translate(-38,-118) scale(1,1)"><g><path fill="none" stroke="none"></path><text fill="#676767" stroke="none" font-family="Helvetica" font-size="12px" font-style="normal" font-weight="normal" text-decoration="none" x="125.5" y="439.5">(from Gitlab)</text></g></g><g transform="translate(-38,-118) scale(1,1)"><path fill="none" stroke="#0f61f7" d="M 200 419 L 371 419 L 371 225" stroke-miterlimit="10" stroke-dasharray="3"></path></g><g transform="translate(-38,-118) scale(1,1)"><path fill="none" stroke="#0f61f7" d="M 375.209517756016 235.16267485762415 L 371 225 L 366.790482243984 235.16267485762415" stroke-miterlimit="10"></path></g><g transform="translate(-38,-118) scale(1,1)"><g><path fill="none" stroke="none"></path><text fill="#676767" stroke="none" font-family="Helvetica" font-size="12px" font-style="normal" font-weight="normal" text-decoration="none" x="343" y="424">+pull</text></g></g><g transform="translate(-38,-118) scale(1,1)"><path fill="none" stroke="#0f61f7" d="M 198 480 L 560 480 L 560 225" stroke-miterlimit="10" stroke-dasharray="3"></path></g><g transform="translate(-38,-118) scale(1,1)"><path fill="none" stroke="#0f61f7" d="M 564.209517756016 235.16267485762415 L 560 225 L 555.790482243984 235.16267485762415" stroke-miterlimit="10"></path></g><g transform="translate(-38,-118) scale(1,1)"><g><path fill="none" stroke="none"></path><text fill="#676767" stroke="none" font-family="Helvetica" font-size="12px" font-style="normal" font-weight="normal" text-decoration="none" x="532" y="485">+pull</text></g></g><g transform="translate(-38,-118) scale(1,1)"><rect fill="#C0C0C0" stroke="none" x="473" y="711" width="510" height="176" opacity="0.2"></rect></g><g transform="translate(-38,-118) scale(1,1)"><rect fill="#a4c4ff" stroke="none" x="466" y="704" width="510" height="176"></rect></g><g transform="translate(-38,-118) scale(1,1)"><path fill="none" stroke="#0f61f7" d="M 466 704 L 976 704 L 976 880 L 466 880 L 466 704 Z Z" stroke-miterlimit="10"></path></g><g transform="translate(-38,-118) scale(1,1)"><rect fill="#a4c4ff" stroke="none" x="456" y="711" width="20" height="10"></rect></g><g transform="translate(-38,-118) scale(1,1)"><path fill="none" stroke="#0f61f7" d="M 456 711 L 476 711 L 476 721 L 456 721 L 456 711 Z Z" stroke-miterlimit="10"></path></g><g transform="translate(-38,-118) scale(1,1)"><rect fill="#a4c4ff" stroke="none" x="456" y="731" width="20" height="10"></rect></g><g transform="translate(-38,-118) scale(1,1)"><path fill="none" stroke="#0f61f7" d="M 456 731 L 476 731 L 476 741 L 456 741 L 456 731 Z Z" stroke-miterlimit="10"></path></g><g transform="translate(-38,-118) scale(1,1)"><g><path fill="none" stroke="none"></path><text fill="#676767" stroke="none" font-family="Helvetica" font-size="12px" font-style="normal" font-weight="bold" text-decoration="none" x="703.5" y="722.5">TestCell</text></g></g><g transform="translate(-38,-118) scale(1,1)"><path fill="none" stroke="#0f61f7" d="M 721 225 L 721 704" stroke-miterlimit="10" stroke-dasharray="3"></path></g><g transform="translate(-38,-118) scale(1,1)"><path fill="none" stroke="#0f61f7" d="M 716.790482243984 693.8373251423759 L 721 704 L 725.209517756016 693.8373251423759" stroke-miterlimit="10"></path></g><g transform="translate(-38,-118) scale(1,1)"><g><path fill="none" stroke="none"></path><text fill="#676767" stroke="none" font-family="Helvetica" font-size="12px" font-style="normal" font-weight="normal" text-decoration="none" x="689" y="469">+upload and start</text></g></g><g transform="translate(-38,-118) scale(1,1)"><path fill="none" stroke="#0f61f7" d="M 211 544 L 880 544 L 881 226" stroke-miterlimit="10" stroke-dasharray="3"></path></g><g transform="translate(-38,-118) scale(1,1)"><path fill="none" stroke="#0f61f7" d="M 885.1775390035036 236.17586202118554 L 881 226 L 876.7585451184498 236.14938719764763" stroke-miterlimit="10"></path></g><g transform="translate(-38,-118) scale(1,1)"><g><path fill="none" stroke="none"></path><text fill="#676767" stroke="none" font-family="Helvetica" font-size="12px" font-style="normal" font-weight="normal" text-decoration="none" x="852" y="549">+pull</text></g></g><g transform="translate(-38,-118) scale(1,1)"><rect fill="#C0C0C0" stroke="none" x="1313" y="183" width="92" height="44" opacity="0.2"></rect></g><g transform="translate(-38,-118) scale(1,1)"><rect fill="#a4c4ff" stroke="none" x="1306" y="176" width="92" height="44"></rect></g><g transform="translate(-38,-118) scale(1,1)"><path fill="none" stroke="#0f61f7" d="M 1306 176 L 1398 176 L 1398 220 L 1306 220 L 1306 176 Z Z" stroke-miterlimit="10"></path></g><g transform="translate(-38,-118) scale(1,1)"><rect fill="#a4c4ff" stroke="none" x="1296" y="183" width="20" height="10"></rect></g><g transform="translate(-38,-118) scale(1,1)"><path fill="none" stroke="#0f61f7" d="M 1296 183 L 1316 183 L 1316 193 L 1296 193 L 1296 183 Z Z" stroke-miterlimit="10"></path></g><g transform="translate(-38,-118) scale(1,1)"><rect fill="#a4c4ff" stroke="none" x="1296" y="203" width="20" height="10"></rect></g><g transform="translate(-38,-118) scale(1,1)"><path fill="none" stroke="#0f61f7" d="M 1296 203 L 1316 203 L 1316 213 L 1296 213 L 1296 203 Z Z" stroke-miterlimit="10"></path></g><g transform="translate(-38,-118) scale(1,1)"><g><path fill="none" stroke="none"></path><text fill="#676767" stroke="none" font-family="Helvetica" font-size="12px" font-style="normal" font-weight="bold" text-decoration="none" x="1328" y="194.5">HttpServer</text></g></g><g transform="translate(-38,-118) scale(1,1)"><path fill="none" stroke="#0f61f7" d="M 1115 200 L 1295 198" stroke-miterlimit="10" stroke-dasharray="3"></path></g><g transform="translate(-38,-118) scale(1,1)"><path fill="none" stroke="#0f61f7" d="M 1284.8847219424968 202.3221695731883 L 1295 198 L 1284.7911828773124 193.90365370659163" stroke-miterlimit="10"></path></g><g transform="translate(-38,-118) scale(1,1)"><g><path fill="none" stroke="none"></path><text fill="#676767" stroke="none" font-family="Helvetica" font-size="12px" font-style="normal" font-weight="normal" text-decoration="none" x="1182" y="190">+upload</text></g></g><g transform="translate(-38,-118) scale(1,1)"><rect fill="#C0C0C0" stroke="none" x="1289" y="407" width="130" height="49" opacity="0.2"></rect></g><g transform="translate(-38,-118) scale(1,1)"><rect fill="#a4c4ff" stroke="none" x="1282" y="400" width="130" height="49"></rect></g><g transform="translate(-38,-118) scale(1,1)"><path fill="none" stroke="#0f61f7" d="M 1282 400 L 1412 400 L 1412 449 L 1282 449 L 1282 400 Z Z" stroke-miterlimit="10"></path></g><g transform="translate(-38,-118) scale(1,1)"><rect fill="#a4c4ff" stroke="none" x="1272" y="407" width="20" height="10"></rect></g><g transform="translate(-38,-118) scale(1,1)"><path fill="none" stroke="#0f61f7" d="M 1272 407 L 1292 407 L 1292 417 L 1272 417 L 1272 407 Z Z" stroke-miterlimit="10"></path></g><g transform="translate(-38,-118) scale(1,1)"><rect fill="#a4c4ff" stroke="none" x="1272" y="427" width="20" height="10"></rect></g><g transform="translate(-38,-118) scale(1,1)"><path fill="none" stroke="#0f61f7" d="M 1272 427 L 1292 427 L 1292 437 L 1272 437 L 1272 427 Z Z" stroke-miterlimit="10"></path></g><g transform="translate(-38,-118) scale(1,1)"><g><path fill="none" stroke="none"></path><text fill="#676767" stroke="none" font-family="Helvetica" font-size="12px" font-style="normal" font-weight="normal" text-decoration="none" x="1298.5" y="416.5">«DockerContainer»</text></g></g><g transform="translate(-38,-118) scale(1,1)"><g><path fill="none" stroke="none"></path><text fill="#676767" stroke="none" font-family="Helvetica" font-size="12px" font-style="normal" font-weight="bold" text-decoration="none" x="1307.5" y="430.5">ApplicationBuild</text></g></g><g transform="translate(-38,-118) scale(1,1)"><g><path fill="none" stroke="none"></path><text fill="#676767" stroke="none" font-family="Helvetica" font-size="12px" font-style="normal" font-weight="normal" text-decoration="none" x="1296.5" y="444.5">(from Jenkins Slave)</text></g></g><g transform="translate(-38,-118) scale(1,1)"><rect fill="#C0C0C0" stroke="none" x="1289" y="471" width="130" height="49" opacity="0.2"></rect></g><g transform="translate(-38,-118) scale(1,1)"><rect fill="#a4c4ff" stroke="none" x="1282" y="464" width="130" height="49"></rect></g><g transform="translate(-38,-118) scale(1,1)"><path fill="none" stroke="#0f61f7" d="M 1282 464 L 1412 464 L 1412 513 L 1282 513 L 1282 464 Z Z" stroke-miterlimit="10"></path></g><g transform="translate(-38,-118) scale(1,1)"><rect fill="#a4c4ff" stroke="none" x="1272" y="471" width="20" height="10"></rect></g><g transform="translate(-38,-118) scale(1,1)"><path fill="none" stroke="#0f61f7" d="M 1272 471 L 1292 471 L 1292 481 L 1272 481 L 1272 471 Z Z" stroke-miterlimit="10"></path></g><g transform="translate(-38,-118) scale(1,1)"><rect fill="#a4c4ff" stroke="none" x="1272" y="491" width="20" height="10"></rect></g><g transform="translate(-38,-118) scale(1,1)"><path fill="none" stroke="#0f61f7" d="M 1272 491 L 1292 491 L 1292 501 L 1272 501 L 1272 491 Z Z" stroke-miterlimit="10"></path></g><g transform="translate(-38,-118) scale(1,1)"><g><path fill="none" stroke="none"></path><text fill="#676767" stroke="none" font-family="Helvetica" font-size="12px" font-style="normal" font-weight="normal" text-decoration="none" x="1298.5" y="480.5">«DockerContainer»</text></g></g><g transform="translate(-38,-118) scale(1,1)"><g><path fill="none" stroke="none"></path><text fill="#676767" stroke="none" font-family="Helvetica" font-size="12px" font-style="normal" font-weight="bold" text-decoration="none" x="1321" y="494.5">ImageBuild</text></g></g><g transform="translate(-38,-118) scale(1,1)"><g><path fill="none" stroke="none"></path><text fill="#676767" stroke="none" font-family="Helvetica" font-size="12px" font-style="normal" font-weight="normal" text-decoration="none" x="1296.5" y="508.5">(from Jenkins Slave)</text></g></g><g transform="translate(-38,-118) scale(1,1)"><rect fill="#C0C0C0" stroke="none" x="1289" y="527" width="130" height="49" opacity="0.2"></rect></g><g transform="translate(-38,-118) scale(1,1)"><rect fill="#a4c4ff" stroke="none" x="1282" y="520" width="130" height="49"></rect></g><g transform="translate(-38,-118) scale(1,1)"><path fill="none" stroke="#0f61f7" d="M 1282 520 L 1412 520 L 1412 569 L 1282 569 L 1282 520 Z Z" stroke-miterlimit="10"></path></g><g transform="translate(-38,-118) scale(1,1)"><rect fill="#a4c4ff" stroke="none" x="1272" y="527" width="20" height="10"></rect></g><g transform="translate(-38,-118) scale(1,1)"><path fill="none" stroke="#0f61f7" d="M 1272 527 L 1292 527 L 1292 537 L 1272 537 L 1272 527 Z Z" stroke-miterlimit="10"></path></g><g transform="translate(-38,-118) scale(1,1)"><rect fill="#a4c4ff" stroke="none" x="1272" y="547" width="20" height="10"></rect></g><g transform="translate(-38,-118) scale(1,1)"><path fill="none" stroke="#0f61f7" d="M 1272 547 L 1292 547 L 1292 557 L 1272 557 L 1272 547 Z Z" stroke-miterlimit="10"></path></g><g transform="translate(-38,-118) scale(1,1)"><g><path fill="none" stroke="none"></path><text fill="#676767" stroke="none" font-family="Helvetica" font-size="12px" font-style="normal" font-weight="normal" text-decoration="none" x="1298.5" y="536.5">«DockerContainer»</text></g></g><g transform="translate(-38,-118) scale(1,1)"><g><path fill="none" stroke="none"></path><text fill="#676767" stroke="none" font-family="Helvetica" font-size="12px" font-style="normal" font-weight="bold" text-decoration="none" x="1311.5" y="550.5">IntegrationTest</text></g></g><g transform="translate(-38,-118) scale(1,1)"><g><path fill="none" stroke="none"></path><text fill="#676767" stroke="none" font-family="Helvetica" font-size="12px" font-style="normal" font-weight="normal" text-decoration="none" x="1296.5" y="564.5">(from Jenkins Slave)</text></g></g><g transform="translate(-38,-118) scale(1,1)"><path fill="none" stroke="#0f61f7" d="M 400 225 L 400 417 L 1272 417" stroke-miterlimit="10" stroke-dasharray="3"></path></g><g transform="translate(-38,-118) scale(1,1)"><path fill="#FFFFFF" stroke="none" d="M 1251.6746502847518 425.419035512032 L 1272 417 L 1251.6746502847516 408.580964487968"></path></g><g transform="translate(-38,-118) scale(1,1)"><path fill="none" stroke="#0f61f7" d="M 1251.6746502847518 425.419035512032 L 1272 417 L 1251.6746502847516 408.580964487968 L 1251.6746502847518 425.419035512032" stroke-miterlimit="10"></path></g><g transform="translate(-38,-118) scale(1,1)"><g><path fill="none" stroke="none"></path><text fill="#676767" stroke="none" font-family="Helvetica" font-size="12px" font-style="normal" font-weight="normal" text-decoration="none" x="369" y="408">+execute at</text></g></g><g transform="translate(-38,-118) scale(1,1)"><path fill="none" stroke="#0f61f7" d="M 572 225 L 572 488 L 1272 488" stroke-miterlimit="10" stroke-dasharray="3"></path></g><g transform="translate(-38,-118) scale(1,1)"><path fill="#FFFFFF" stroke="none" d="M 1251.6746502847518 496.419035512032 L 1272 488 L 1251.6746502847516 479.580964487968"></path></g><g transform="translate(-38,-118) scale(1,1)"><path fill="none" stroke="#0f61f7" d="M 1251.6746502847518 496.419035512032 L 1272 488 L 1251.6746502847516 479.580964487968 L 1251.6746502847518 496.419035512032" stroke-miterlimit="10"></path></g><g transform="translate(-38,-118) scale(1,1)"><g><path fill="none" stroke="none"></path><text fill="#676767" stroke="none" font-family="Helvetica" font-size="12px" font-style="normal" font-weight="normal" text-decoration="none" x="541" y="479">+execute at</text></g></g><g transform="translate(-38,-118) scale(1,1)"><path fill="none" stroke="#0f61f7" d="M 920 225 L 920 528 L 1272 528" stroke-miterlimit="10" stroke-dasharray="3"></path></g><g transform="translate(-38,-118) scale(1,1)"><path fill="#FFFFFF" stroke="none" d="M 1251.6746502847518 536.419035512032 L 1272 528 L 1251.6746502847516 519.580964487968"></path></g><g transform="translate(-38,-118) scale(1,1)"><path fill="none" stroke="#0f61f7" d="M 1251.6746502847518 536.419035512032 L 1272 528 L 1251.6746502847516 519.580964487968 L 1251.6746502847518 536.419035512032" stroke-miterlimit="10"></path></g><g transform="translate(-38,-118) scale(1,1)"><g><path fill="none" stroke="none"></path><text fill="#676767" stroke="none" font-family="Helvetica" font-size="12px" font-style="normal" font-weight="normal" text-decoration="none" x="889" y="519">+execute at</text></g></g><g transform="translate(-38,-118) scale(1,1)"><path fill="none" stroke="#0f61f7" d="M 1272 560 L 920 560 L 920 704" stroke-miterlimit="10" stroke-dasharray="3"></path></g><g transform="translate(-38,-118) scale(1,1)"><path fill="none" stroke="#0f61f7" d="M 915.790482243984 693.8373251423759 L 920 704 L 924.209517756016 693.8373251423759" stroke-miterlimit="10"></path></g><g transform="translate(-38,-118) scale(1,1)"><g><path fill="none" stroke="none"></path><text fill="#676767" stroke="none" font-family="Helvetica" font-size="12px" font-style="normal" font-weight="normal" text-decoration="none" x="922" y="565">+test</text></g></g></g></svg>